<svg xmlns="http://www.w3.org/2000/svg" viewBox="0 0 511.985 511.985" style="enable-background:new 0 0 511.985 511.985" xml:space="preserve"><path style="fill:#aab2bc" d="M382.645 168.665c-37.28 0-70.856 15.781-94.466 41.015-12.64-14.562-31.296-23.772-52.092-23.772-38.101 0-68.982 30.882-68.982 68.975 0 .578.016 1.148.023 1.719-39.358 7.984-68.99 42.78-68.99 84.497 0 47.607 38.601 86.217 86.216 86.217h198.291c71.435 0 129.34-57.89 129.34-129.324 0-71.43-57.905-129.327-129.34-129.327z"/><path style="fill:#949da8" d="M462.814 196.501c17.422 22.038 27.828 49.881 27.828 80.162 0 71.419-57.904 129.323-129.325 129.323H163.019c-18.358 0-35.374-5.75-49.357-15.531 15.585 22.281 41.437 36.859 70.692 36.859h198.291c71.435 0 129.34-57.89 129.34-129.324 0-41.147-19.218-77.803-49.171-101.489z"/><path style="fill:#d7dce2" d="M284.523 84.668c-37.288 0-70.872 15.773-94.481 41.015-12.64-14.563-31.295-23.772-52.1-23.772-38.093 0-68.975 30.882-68.975 68.974 0 .57.008 1.148.023 1.719C29.625 180.588 0 215.384 0 257.102c0 47.608 38.601 86.216 86.217 86.216h198.306c71.42 0 129.31-57.904 129.31-129.324 0-71.429-57.89-129.326-129.31-129.326z"/><path style="fill:#ccd1d9" d="M364.677 112.503c17.422 22.031 27.844 49.881 27.844 80.154 0 71.428-57.904 129.332-129.34 129.332H64.882c-18.358 0-35.373-5.75-49.357-15.53 15.586 22.279 41.437 36.857 70.693 36.857h198.305c71.42 0 129.31-57.904 129.31-129.324 0-41.147-19.219-77.802-49.156-101.489z"/></svg>