<svg xmlns="http://www.w3.org/2000/svg" viewBox="0 0 511.985 511.985" style="enable-background:new 0 0 511.985 511.985" xml:space="preserve"><path style="fill:#ccd1d9" d="M382.66 126.657c-37.28 0-70.872 15.781-94.481 41.03-12.64-14.577-31.296-23.78-52.092-23.78-38.093 0-68.982 30.874-68.982 68.966 0 .578.016 1.156.031 1.734-39.374 7.969-68.998 42.779-68.998 84.506 0 47.592 38.593 86.215 86.216 86.215h198.307c71.419 0 129.324-57.904 129.324-129.332-.001-71.435-57.906-129.339-129.325-129.339z"/><path style="fill:#aab2bc" d="M462.813 154.5c17.422 22.03 27.828 49.873 27.828 80.153 0 71.429-57.889 129.331-129.325 129.331h-198.29c-18.374 0-35.39-5.748-49.373-15.529 15.593 22.279 41.437 36.873 70.7 36.873H382.66c71.419 0 129.324-57.904 129.324-129.332 0-41.154-19.218-77.81-49.171-101.496zM95.998 257.324H245.32c5.891 0 10.672-4.781 10.672-10.671s-4.781-10.671-10.672-10.671H95.998c-5.891 0-10.672 4.781-10.672 10.671s4.781 10.671 10.672 10.671z"/><path style="fill:#e6e9ed" d="M202.65 299.988H10.656C4.765 299.988 0 304.769 0 310.642c0 5.906 4.766 10.688 10.656 10.688H202.65c5.891 0 10.672-4.781 10.672-10.688 0-5.873-4.781-10.654-10.672-10.654z"/><path style="fill:#aab2bc" d="M191.994 363.984H74.654c-5.891 0-10.656 4.781-10.656 10.656 0 5.906 4.766 10.688 10.656 10.688h117.34c5.891 0 10.656-4.781 10.656-10.688 0-5.875-4.765-10.656-10.656-10.656z"/></svg>