<svg xmlns="http://www.w3.org/2000/svg" viewBox="0 0 511.984 511.984" style="enable-background:new 0 0 511.984 511.984" xml:space="preserve"><path style="fill:#ccd1d9" d="M351.989 42.718c-46.123 0-87.685 19.516-116.871 50.733-15.655-18.015-38.718-29.405-64.467-29.405-47.124 0-85.325 38.202-85.325 85.325 0 .719.016 1.422.031 2.141C36.655 161.386 0 204.432 0 256.04c0 58.904 47.749 106.668 106.653 106.668h245.336c88.356 0 159.995-71.638 159.995-159.995 0-88.372-71.638-159.995-159.995-159.995z"/><path style="fill:#aab2bc" d="M453.954 79.404c22.906 27.688 36.688 63.218 36.688 101.966 0 88.373-71.622 159.995-159.995 159.995H85.326c-24.016 0-46.171-7.938-63.998-21.327 19.452 25.905 50.436 42.67 85.325 42.67h245.336c88.356 0 159.995-71.638 159.995-159.995 0-49.623-22.593-93.95-58.03-123.309z"/><path style="fill:#5d9cec" d="M319.991 405.269c0 35.359-28.656 63.997-63.999 63.997s-63.998-28.638-63.998-63.997c0-35.343 51.842-127.902 64.029-127.902s63.968 92.56 63.968 127.902z"/><path style="fill:#4a89dc" d="M405.316 437.269c0 17.67-14.328 31.997-32 31.997-17.671 0-31.999-14.327-31.999-31.997 0-17.672 25.858-53.234 31.952-53.234s32.047 35.562 32.047 53.234zM170.651 437.269c0 17.67-14.312 31.997-31.999 31.997-17.656 0-31.999-14.327-31.999-31.997 0-17.672 25.858-53.234 31.952-53.234s32.046 35.562 32.046 53.234z"/></svg>