<svg xmlns="http://www.w3.org/2000/svg" viewBox="0 0 511.984 511.984" style="enable-background:new 0 0 511.984 511.984" xml:space="preserve"><path style="fill:#ccd1d9" d="M351.989 10.672c-46.123 0-87.669 19.515-116.871 50.733-15.64-18.016-38.718-29.406-64.451-29.406-47.132 0-85.333 38.202-85.333 85.325 0 .719.008 1.422.031 2.141C36.663 129.34 0 172.385 0 223.993c0 58.904 47.757 106.668 106.669 106.668h245.32c88.372 0 159.995-71.638 159.995-159.995 0-88.372-71.623-159.994-159.995-159.994z"/><path style="fill:#aab2bc" d="M453.954 47.358c22.922 27.687 36.703 63.217 36.703 101.966 0 88.372-71.638 159.995-159.995 159.995H85.334c-24.016 0-46.171-7.937-63.998-21.327 19.46 25.905 50.436 42.67 85.333 42.67h245.32c88.372 0 159.995-71.638 159.995-159.995 0-49.624-22.577-93.95-58.03-123.309z"/><path style="fill:#e6e9ed" d="M192.002 426.659c0 5.891-4.781 10.656-10.672 10.656-5.89 0-10.663-4.766-10.663-10.656s4.773-10.672 10.663-10.672c5.891 0 10.672 4.781 10.672 10.672z"/><path style="fill:#ccd1d9" d="M256 426.659c0 5.891-4.781 10.656-10.672 10.656-5.89 0-10.663-4.766-10.663-10.656s4.773-10.672 10.663-10.672c5.891 0 10.672 4.781 10.672 10.672z"/><path style="fill:#e6e9ed" d="M287.991 362.66c0 5.891-4.781 10.656-10.655 10.656-5.898 0-10.672-4.766-10.672-10.656s4.773-10.671 10.672-10.671c5.874 0 10.655 4.781 10.655 10.671z"/><path style="fill:#ccd1d9" d="M223.891 362.66c0 5.891-4.78 10.656-10.671 10.656-5.891 0-10.664-4.766-10.664-10.656s4.773-10.671 10.664-10.671 10.671 4.781 10.671 10.671zM160.003 490.656c0 5.891-4.78 10.656-10.671 10.656-5.891 0-10.664-4.766-10.664-10.656s4.773-10.672 10.664-10.672 10.671 4.781 10.671 10.672zM128.105 426.659c0 5.891-4.773 10.656-10.663 10.656-5.891 0-10.664-4.766-10.664-10.656s4.773-10.672 10.664-10.672c5.89 0 10.663 4.781 10.663 10.672z"/><path style="fill:#e6e9ed" d="M160.003 362.66c0 5.891-4.78 10.656-10.671 10.656-5.891 0-10.664-4.766-10.664-10.656s4.773-10.671 10.664-10.671 10.671 4.781 10.671 10.671zM96.107 490.656c0 5.891-4.773 10.656-10.664 10.656s-10.664-4.766-10.664-10.656 4.773-10.672 10.664-10.672 10.664 4.781 10.664 10.672zM224.001 490.656c0 5.891-4.78 10.656-10.671 10.656-5.891 0-10.664-4.766-10.664-10.656s4.773-10.672 10.664-10.672 10.671 4.781 10.671 10.672zM319.991 426.659c0 5.891-4.781 10.656-10.656 10.656-5.906 0-10.672-4.766-10.672-10.656s4.766-10.672 10.672-10.672c5.875 0 10.656 4.781 10.656 10.672z"/><path style="fill:#ccd1d9" d="M351.989 362.66c0 5.891-4.781 10.656-10.656 10.656-5.905 0-10.671-4.766-10.671-10.656s4.766-10.671 10.671-10.671c5.875 0 10.656 4.781 10.656 10.671zM287.991 490.656c0 5.891-4.781 10.656-10.655 10.656-5.898 0-10.672-4.766-10.672-10.656s4.773-10.672 10.672-10.672c5.874 0 10.655 4.781 10.655 10.672z"/></svg>