<svg xmlns="http://www.w3.org/2000/svg" viewBox="0 0 511.984 511.984" style="enable-background:new 0 0 511.984 511.984" xml:space="preserve"><path style="fill:#aab2bc" d="M351.989 10.66c-46.123 0-87.669 19.523-116.871 50.749-15.64-18.023-38.718-29.414-64.451-29.414-47.14 0-85.325 38.202-85.325 85.333 0 .711 0 1.422.031 2.125C36.655 129.328 0 172.373 0 223.989c0 58.904 47.749 106.652 106.669 106.652h245.32c88.372 0 159.995-71.622 159.995-159.987 0-88.356-71.623-159.994-159.995-159.994z"/><path style="fill:#949da8" d="M453.954 47.362c22.922 27.687 36.703 63.217 36.703 101.966 0 88.356-71.638 160.002-159.995 160.002H85.342c-24.031 0-46.187-7.937-63.998-21.343 19.452 25.905 50.436 42.654 85.325 42.654h245.32c88.372 0 159.995-71.622 159.995-159.987 0-49.607-22.577-93.949-58.03-123.292z"/><path style="fill:#f6bb42" d="M255.992 309.377V181.326l-85.325 192.049h63.998v127.949l85.326-191.947z"/></svg>