<svg xmlns="http://www.w3.org/2000/svg" viewBox="0 0 511.984 511.984" style="enable-background:new 0 0 511.984 511.984" xml:space="preserve"><path style="fill:#aab2bc" d="M351.989 10.66c-46.123 0-87.677 19.523-116.879 50.749-15.64-18.023-38.718-29.414-64.451-29.414-47.132 0-85.333 38.202-85.333 85.333 0 .711.008 1.422.031 2.125C36.655 129.328 0 172.373 0 223.989c0 58.904 47.749 106.652 106.661 106.652h245.328c88.356 0 159.995-71.622 159.995-159.987 0-88.364-71.638-159.994-159.995-159.994z"/><path style="fill:#949da8" d="M453.954 47.362c22.906 27.687 36.688 63.209 36.688 101.966 0 88.356-71.622 160.002-159.995 160.002H85.326c-24.016 0-46.171-7.952-63.998-21.343 19.46 25.905 50.436 42.654 85.333 42.654h245.328c88.356 0 159.995-71.622 159.995-159.987 0-49.607-22.593-93.949-58.03-123.292z"/><path style="fill:#f6bb42" d="M213.314 501.324c-1.594 0-3.219-.375-4.742-1.125-5.273-2.625-7.422-9.031-4.797-14.313l24.327-48.903h-46.999a10.69 10.69 0 0 1-9.077-5.063 10.698 10.698 0 0 1-.453-10.391l32.108-63.998c2.641-5.266 9.047-7.391 14.313-4.75 5.265 2.641 7.397 9.047 4.757 14.327l-24.358 48.53h46.928c3.695 0 7.125 1.922 9.07 5.063 1.945 3.125 2.125 7.063.484 10.375l-31.999 64.31a10.687 10.687 0 0 1-9.562 5.938z"/><path style="fill:#5d9cec" d="M85.318 501.324c-1.602 0-3.227-.375-4.766-1.141-5.266-2.641-7.398-9.047-4.766-14.297l63.998-127.995c2.633-5.281 9.039-7.406 14.313-4.781 5.266 2.625 7.405 9.03 4.766 14.312L94.865 495.418a10.674 10.674 0 0 1-9.547 5.906zM277.305 501.324c-1.594 0-3.219-.375-4.75-1.141-5.273-2.641-7.406-9.047-4.773-14.297l63.99-127.995c2.641-5.281 9.046-7.406 14.312-4.781 5.281 2.625 7.406 9.03 4.781 14.312l-63.998 127.996a10.7 10.7 0 0 1-9.562 5.906z"/></svg>